<svg width="391" height="48" viewBox="0 0 391 48" fill="none" xmlns="http://www.w3.org/2000/svg">
<path d="M14.5 47H4.59375L4.65625 39.6875H14.5C16.9583 39.6875 19.0312 39.1354 20.7188 38.0312C22.4062 36.9062 23.6771 35.2708 24.5312 33.125C25.4062 30.9792 25.8438 28.3854 25.8438 25.3438V23.125C25.8438 20.7917 25.5938 18.7396 25.0938 16.9688C24.6146 15.1979 23.8958 13.7083 22.9375 12.5C21.9792 11.2917 20.8021 10.3854 19.4062 9.78125C18.0104 9.15625 16.4062 8.84375 14.5938 8.84375H4.40625V1.5H14.5938C17.6354 1.5 20.4167 2.02083 22.9375 3.0625C25.4792 4.08333 27.6771 5.55208 29.5312 7.46875C31.3854 9.38542 32.8125 11.6771 33.8125 14.3438C34.8333 16.9896 35.3438 19.9375 35.3438 23.1875V25.3438C35.3438 28.5729 34.8333 31.5208 33.8125 34.1875C32.8125 36.8542 31.3854 39.1458 29.5312 41.0625C27.6979 42.9583 25.5 44.4271 22.9375 45.4688C20.3958 46.4896 17.5833 47 14.5 47ZM9.90625 1.5V47H0.53125V1.5H9.90625ZM59.9688 9.28125L47.5938 47H37.625L54.5312 1.5H60.875L59.9688 9.28125ZM70.25 47L57.8438 9.28125L56.8438 1.5H63.25L80.25 47H70.25ZM69.6875 30.0625V37.4062H45.6562V30.0625H69.6875ZM108.156 35.0938C108.156 34.2812 108.031 33.5521 107.781 32.9062C107.552 32.2396 107.115 31.6354 106.469 31.0938C105.823 30.5312 104.917 29.9792 103.75 29.4375C102.583 28.8958 101.073 28.3333 99.2188 27.75C97.1562 27.0833 95.1979 26.3333 93.3438 25.5C91.5104 24.6667 89.8854 23.6979 88.4688 22.5938C87.0729 21.4688 85.9688 20.1667 85.1562 18.6875C84.3646 17.2083 83.9688 15.4896 83.9688 13.5312C83.9688 11.6354 84.3854 9.91667 85.2188 8.375C86.0521 6.8125 87.2188 5.47917 88.7188 4.375C90.2188 3.25 91.9896 2.38542 94.0312 1.78125C96.0938 1.17708 98.3542 0.875 100.812 0.875C104.167 0.875 107.094 1.47917 109.594 2.6875C112.094 3.89583 114.031 5.55208 115.406 7.65625C116.802 9.76042 117.5 12.1667 117.5 14.875H108.188C108.188 13.5417 107.906 12.375 107.344 11.375C106.802 10.3542 105.969 9.55208 104.844 8.96875C103.74 8.38542 102.344 8.09375 100.656 8.09375C99.0312 8.09375 97.6771 8.34375 96.5938 8.84375C95.5104 9.32292 94.6979 9.97917 94.1562 10.8125C93.6146 11.625 93.3438 12.5417 93.3438 13.5625C93.3438 14.3333 93.5312 15.0312 93.9062 15.6562C94.3021 16.2812 94.8854 16.8646 95.6562 17.4062C96.4271 17.9479 97.375 18.4583 98.5 18.9375C99.625 19.4167 100.927 19.8854 102.406 20.3438C104.885 21.0938 107.062 21.9375 108.938 22.875C110.833 23.8125 112.417 24.8646 113.688 26.0312C114.958 27.1979 115.917 28.5208 116.562 30C117.208 31.4792 117.531 33.1562 117.531 35.0312C117.531 37.0104 117.146 38.7812 116.375 40.3438C115.604 41.9062 114.49 43.2292 113.031 44.3125C111.573 45.3958 109.833 46.2188 107.812 46.7812C105.792 47.3438 103.531 47.625 101.031 47.625C98.7812 47.625 96.5625 47.3333 94.375 46.75C92.1875 46.1458 90.1979 45.2396 88.4062 44.0312C86.6354 42.8229 85.2188 41.2812 84.1562 39.4062C83.0938 37.5312 82.5625 35.3125 82.5625 32.75H91.9688C91.9688 34.1667 92.1875 35.3646 92.625 36.3438C93.0625 37.3229 93.6771 38.1146 94.4688 38.7188C95.2812 39.3229 96.2396 39.7604 97.3438 40.0312C98.4688 40.3021 99.6979 40.4375 101.031 40.4375C102.656 40.4375 103.99 40.2083 105.031 39.75C106.094 39.2917 106.875 38.6562 107.375 37.8438C107.896 37.0312 108.156 36.1146 108.156 35.0938ZM154.25 20.0312V27.3438H130.5V20.0312H154.25ZM133.281 1.5V47H123.906V1.5H133.281ZM160.938 1.5V47H151.594V1.5H160.938ZM168.969 42.6562C168.969 41.3229 169.427 40.2083 170.344 39.3125C171.281 38.4167 172.521 37.9688 174.062 37.9688C175.604 37.9688 176.833 38.4167 177.75 39.3125C178.688 40.2083 179.156 41.3229 179.156 42.6562C179.156 43.9896 178.688 45.1042 177.75 46C176.833 46.8958 175.604 47.3438 174.062 47.3438C172.521 47.3438 171.281 46.8958 170.344 46C169.427 45.1042 168.969 43.9896 168.969 42.6562Z" fill="#004071"/>
<path d="M205.469 27.0312H193.781L193.719 20.5938H203.531C205.26 20.5938 206.677 20.375 207.781 19.9375C208.885 19.4792 209.708 18.8229 210.25 17.9688C210.812 17.0938 211.094 16.0312 211.094 14.7812C211.094 13.3646 210.823 12.2188 210.281 11.3438C209.76 10.4688 208.938 9.83333 207.812 9.4375C206.708 9.04167 205.281 8.84375 203.531 8.84375H197.031V47H187.656V1.5H203.531C206.177 1.5 208.542 1.75 210.625 2.25C212.729 2.75 214.51 3.51042 215.969 4.53125C217.427 5.55208 218.542 6.84375 219.312 8.40625C220.083 9.94792 220.469 11.7812 220.469 13.9062C220.469 15.7812 220.042 17.5104 219.188 19.0938C218.354 20.6771 217.031 21.9688 215.219 22.9688C213.427 23.9688 211.083 24.5208 208.188 24.625L205.469 27.0312ZM205.062 47H191.219L194.875 39.6875H205.062C206.708 39.6875 208.052 39.4271 209.094 38.9062C210.135 38.3646 210.906 37.6354 211.406 36.7188C211.906 35.8021 212.156 34.75 212.156 33.5625C212.156 32.2292 211.927 31.0729 211.469 30.0938C211.031 29.1146 210.323 28.3646 209.344 27.8438C208.365 27.3021 207.073 27.0312 205.469 27.0312H196.438L196.5 20.5938H207.75L209.906 23.125C212.677 23.0833 214.906 23.5729 216.594 24.5938C218.302 25.5938 219.542 26.8958 220.312 28.5C221.104 30.1042 221.5 31.8229 221.5 33.6562C221.5 36.5729 220.865 39.0312 219.594 41.0312C218.323 43.0104 216.458 44.5 214 45.5C211.562 46.5 208.583 47 205.062 47ZM265.906 23.1875V25.3438C265.906 28.8021 265.438 31.9062 264.5 34.6562C263.562 37.4062 262.24 39.75 260.531 41.6875C258.823 43.6042 256.781 45.0729 254.406 46.0938C252.052 47.1146 249.438 47.625 246.562 47.625C243.708 47.625 241.094 47.1146 238.719 46.0938C236.365 45.0729 234.323 43.6042 232.594 41.6875C230.865 39.75 229.521 37.4062 228.562 34.6562C227.625 31.9062 227.156 28.8021 227.156 25.3438V23.1875C227.156 19.7083 227.625 16.6042 228.562 13.875C229.5 11.125 230.823 8.78125 232.531 6.84375C234.26 4.90625 236.302 3.42708 238.656 2.40625C241.031 1.38542 243.646 0.875 246.5 0.875C249.375 0.875 251.99 1.38542 254.344 2.40625C256.719 3.42708 258.76 4.90625 260.469 6.84375C262.198 8.78125 263.531 11.125 264.469 13.875C265.427 16.6042 265.906 19.7083 265.906 23.1875ZM256.438 25.3438V23.125C256.438 20.7083 256.219 18.5833 255.781 16.75C255.344 14.9167 254.698 13.375 253.844 12.125C252.99 10.875 251.948 9.9375 250.719 9.3125C249.49 8.66667 248.083 8.34375 246.5 8.34375C244.917 8.34375 243.51 8.66667 242.281 9.3125C241.073 9.9375 240.042 10.875 239.188 12.125C238.354 13.375 237.719 14.9167 237.281 16.75C236.844 18.5833 236.625 20.7083 236.625 23.125V25.3438C236.625 27.7396 236.844 29.8646 237.281 31.7188C237.719 33.5521 238.365 35.1042 239.219 36.375C240.073 37.625 241.115 38.5729 242.344 39.2188C243.573 39.8646 244.979 40.1875 246.562 40.1875C248.146 40.1875 249.552 39.8646 250.781 39.2188C252.01 38.5729 253.042 37.625 253.875 36.375C254.708 35.1042 255.344 33.5521 255.781 31.7188C256.219 29.8646 256.438 27.7396 256.438 25.3438ZM290.469 9.28125L278.094 47H268.125L285.031 1.5H291.375L290.469 9.28125ZM300.75 47L288.344 9.28125L287.344 1.5H293.75L310.75 47H300.75ZM300.188 30.0625V37.4062H276.156V30.0625H300.188ZM314.969 1.5H331.938C335.417 1.5 338.406 2.02083 340.906 3.0625C343.427 4.10417 345.365 5.64583 346.719 7.6875C348.073 9.72917 348.75 12.2396 348.75 15.2188C348.75 17.6562 348.333 19.75 347.5 21.5C346.688 23.2292 345.531 24.6771 344.031 25.8438C342.552 26.9896 340.812 27.9062 338.812 28.5938L335.844 30.1562H321.094L321.031 22.8438H332C333.646 22.8438 335.01 22.5521 336.094 21.9688C337.177 21.3854 337.99 20.5729 338.531 19.5312C339.094 18.4896 339.375 17.2812 339.375 15.9062C339.375 14.4479 339.104 13.1875 338.562 12.125C338.021 11.0625 337.198 10.25 336.094 9.6875C334.99 9.125 333.604 8.84375 331.938 8.84375H324.344V47H314.969V1.5ZM340.406 47L330.031 26.7188L339.938 26.6562L350.438 46.5625V47H340.406ZM369.938 47H360.031L360.094 39.6875H369.938C372.396 39.6875 374.469 39.1354 376.156 38.0312C377.844 36.9062 379.115 35.2708 379.969 33.125C380.844 30.9792 381.281 28.3854 381.281 25.3438V23.125C381.281 20.7917 381.031 18.7396 380.531 16.9688C380.052 15.1979 379.333 13.7083 378.375 12.5C377.417 11.2917 376.24 10.3854 374.844 9.78125C373.448 9.15625 371.844 8.84375 370.031 8.84375H359.844V1.5H370.031C373.073 1.5 375.854 2.02083 378.375 3.0625C380.917 4.08333 383.115 5.55208 384.969 7.46875C386.823 9.38542 388.25 11.6771 389.25 14.3438C390.271 16.9896 390.781 19.9375 390.781 23.1875V25.3438C390.781 28.5729 390.271 31.5208 389.25 34.1875C388.25 36.8542 386.823 39.1458 384.969 41.0625C383.135 42.9583 380.938 44.4271 378.375 45.4688C375.833 46.4896 373.021 47 369.938 47ZM365.344 1.5V47H355.969V1.5H365.344Z" fill="#004071" fill-opacity="0.5"/>
</svg>
