<svg width="586" height="71" viewBox="0 0 586 71" fill="none" xmlns="http://www.w3.org/2000/svg">
<path d="M21.25 70H6.39062L6.48438 59.0312H21.25C24.9375 59.0312 28.0469 58.2031 30.5781 56.5469C33.1094 54.8594 35.0156 52.4062 36.2969 49.1875C37.6094 45.9688 38.2656 42.0781 38.2656 37.5156V34.1875C38.2656 30.6875 37.8906 27.6094 37.1406 24.9531C36.4219 22.2969 35.3438 20.0625 33.9062 18.25C32.4688 16.4375 30.7031 15.0781 28.6094 14.1719C26.5156 13.2344 24.1094 12.7656 21.3906 12.7656H6.10938V1.75H21.3906C25.9531 1.75 30.125 2.53125 33.9062 4.09375C37.7188 5.625 41.0156 7.82813 43.7969 10.7031C46.5781 13.5781 48.7188 17.0156 50.2188 21.0156C51.75 24.9844 52.5156 29.4062 52.5156 34.2812V37.5156C52.5156 42.3594 51.75 46.7812 50.2188 50.7812C48.7188 54.7812 46.5781 58.2188 43.7969 61.0938C41.0469 63.9375 37.75 66.1406 33.9062 67.7031C30.0938 69.2344 25.875 70 21.25 70ZM14.3594 1.75V70H0.296875V1.75H14.3594ZM89.4531 13.4219L70.8906 70H55.9375L81.2969 1.75H90.8125L89.4531 13.4219ZM104.875 70L86.2656 13.4219L84.7656 1.75H94.375L119.875 70H104.875ZM104.031 44.5938V55.6094H67.9844V44.5938H104.031ZM161.734 52.1406C161.734 50.9219 161.547 49.8281 161.172 48.8594C160.828 47.8594 160.172 46.9531 159.203 46.1406C158.234 45.2969 156.875 44.4688 155.125 43.6562C153.375 42.8438 151.109 42 148.328 41.125C145.234 40.125 142.297 39 139.516 37.75C136.766 36.5 134.328 35.0469 132.203 33.3906C130.109 31.7031 128.453 29.75 127.234 27.5312C126.047 25.3125 125.453 22.7344 125.453 19.7969C125.453 16.9531 126.078 14.375 127.328 12.0625C128.578 9.71875 130.328 7.71875 132.578 6.0625C134.828 4.375 137.484 3.07812 140.547 2.17188C143.641 1.26563 147.031 0.8125 150.719 0.8125C155.75 0.8125 160.141 1.71875 163.891 3.53125C167.641 5.34375 170.547 7.82813 172.609 10.9844C174.703 14.1406 175.75 17.75 175.75 21.8125H161.781C161.781 19.8125 161.359 18.0625 160.516 16.5625C159.703 15.0312 158.453 13.8281 156.766 12.9531C155.109 12.0781 153.016 11.6406 150.484 11.6406C148.047 11.6406 146.016 12.0156 144.391 12.7656C142.766 13.4844 141.547 14.4687 140.734 15.7188C139.922 16.9375 139.516 18.3125 139.516 19.8438C139.516 21 139.797 22.0469 140.359 22.9844C140.953 23.9219 141.828 24.7969 142.984 25.6094C144.141 26.4219 145.562 27.1875 147.25 27.9062C148.938 28.625 150.891 29.3281 153.109 30.0156C156.828 31.1406 160.094 32.4062 162.906 33.8125C165.75 35.2188 168.125 36.7969 170.031 38.5469C171.938 40.2969 173.375 42.2812 174.344 44.5C175.312 46.7188 175.797 49.2344 175.797 52.0469C175.797 55.0156 175.219 57.6719 174.062 60.0156C172.906 62.3594 171.234 64.3438 169.047 65.9688C166.859 67.5938 164.25 68.8281 161.219 69.6719C158.188 70.5156 154.797 70.9375 151.047 70.9375C147.672 70.9375 144.344 70.5 141.062 69.625C137.781 68.7188 134.797 67.3594 132.109 65.5469C129.453 63.7344 127.328 61.4219 125.734 58.6094C124.141 55.7969 123.344 52.4688 123.344 48.625H137.453C137.453 50.75 137.781 52.5469 138.438 54.0156C139.094 55.4844 140.016 56.6719 141.203 57.5781C142.422 58.4844 143.859 59.1406 145.516 59.5469C147.203 59.9531 149.047 60.1562 151.047 60.1562C153.484 60.1562 155.484 59.8125 157.047 59.125C158.641 58.4375 159.812 57.4844 160.562 56.2656C161.344 55.0469 161.734 53.6719 161.734 52.1406ZM230.875 29.5469V40.5156H195.25V29.5469H230.875ZM199.422 1.75V70H185.359V1.75H199.422ZM240.906 1.75V70H226.891V1.75H240.906ZM252.953 63.4844C252.953 61.4844 253.641 59.8125 255.016 58.4688C256.422 57.125 258.281 56.4531 260.594 56.4531C262.906 56.4531 264.75 57.125 266.125 58.4688C267.531 59.8125 268.234 61.4844 268.234 63.4844C268.234 65.4844 267.531 67.1562 266.125 68.5C264.75 69.8438 262.906 70.5156 260.594 70.5156C258.281 70.5156 256.422 69.8438 255.016 68.5C253.641 67.1562 252.953 65.4844 252.953 63.4844Z" fill="white"/>
<path d="M307.703 40.0469H290.172L290.078 30.3906H304.797C307.391 30.3906 309.516 30.0625 311.172 29.4062C312.828 28.7188 314.062 27.7344 314.875 26.4531C315.719 25.1406 316.141 23.5469 316.141 21.6719C316.141 19.5469 315.734 17.8281 314.922 16.5156C314.141 15.2031 312.906 14.25 311.219 13.6562C309.562 13.0625 307.422 12.7656 304.797 12.7656H295.047V70H280.984V1.75H304.797C308.766 1.75 312.312 2.125 315.438 2.875C318.594 3.625 321.266 4.76562 323.453 6.29688C325.641 7.82813 327.312 9.76562 328.469 12.1094C329.625 14.4219 330.203 17.1719 330.203 20.3594C330.203 23.1719 329.562 25.7656 328.281 28.1406C327.031 30.5156 325.047 32.4531 322.328 33.9531C319.641 35.4531 316.125 36.2812 311.781 36.4375L307.703 40.0469ZM307.094 70H286.328L291.812 59.0312H307.094C309.562 59.0312 311.578 58.6406 313.141 57.8594C314.703 57.0469 315.859 55.9531 316.609 54.5781C317.359 53.2031 317.734 51.625 317.734 49.8438C317.734 47.8438 317.391 46.1094 316.703 44.6406C316.047 43.1719 314.984 42.0469 313.516 41.2656C312.047 40.4531 310.109 40.0469 307.703 40.0469H294.156L294.25 30.3906H311.125L314.359 34.1875C318.516 34.125 321.859 34.8594 324.391 36.3906C326.953 37.8906 328.812 39.8438 329.969 42.25C331.156 44.6562 331.75 47.2344 331.75 49.9844C331.75 54.3594 330.797 58.0469 328.891 61.0469C326.984 64.0156 324.188 66.25 320.5 67.75C316.844 69.25 312.375 70 307.094 70ZM398.359 34.2812V37.5156C398.359 42.7031 397.656 47.3594 396.25 51.4844C394.844 55.6094 392.859 59.125 390.297 62.0312C387.734 64.9062 384.672 67.1094 381.109 68.6406C377.578 70.1719 373.656 70.9375 369.344 70.9375C365.062 70.9375 361.141 70.1719 357.578 68.6406C354.047 67.1094 350.984 64.9062 348.391 62.0312C345.797 59.125 343.781 55.6094 342.344 51.4844C340.938 47.3594 340.234 42.7031 340.234 37.5156V34.2812C340.234 29.0625 340.938 24.4062 342.344 20.3125C343.75 16.1875 345.734 12.6719 348.297 9.76562C350.891 6.85938 353.953 4.64063 357.484 3.10938C361.047 1.57812 364.969 0.8125 369.25 0.8125C373.562 0.8125 377.484 1.57812 381.016 3.10938C384.578 4.64063 387.641 6.85938 390.203 9.76562C392.797 12.6719 394.797 16.1875 396.203 20.3125C397.641 24.4062 398.359 29.0625 398.359 34.2812ZM384.156 37.5156V34.1875C384.156 30.5625 383.828 27.375 383.172 24.625C382.516 21.875 381.547 19.5625 380.266 17.6875C378.984 15.8125 377.422 14.4062 375.578 13.4688C373.734 12.5 371.625 12.0156 369.25 12.0156C366.875 12.0156 364.766 12.5 362.922 13.4688C361.109 14.4062 359.562 15.8125 358.281 17.6875C357.031 19.5625 356.078 21.875 355.422 24.625C354.766 27.375 354.438 30.5625 354.438 34.1875V37.5156C354.438 41.1094 354.766 44.2969 355.422 47.0781C356.078 49.8281 357.047 52.1562 358.328 54.0625C359.609 55.9375 361.172 57.3594 363.016 58.3281C364.859 59.2969 366.969 59.7812 369.344 59.7812C371.719 59.7812 373.828 59.2969 375.672 58.3281C377.516 57.3594 379.062 55.9375 380.312 54.0625C381.562 52.1562 382.516 49.8281 383.172 47.0781C383.828 44.2969 384.156 41.1094 384.156 37.5156ZM435.203 13.4219L416.641 70H401.688L427.047 1.75H436.562L435.203 13.4219ZM450.625 70L432.016 13.4219L430.516 1.75H440.125L465.625 70H450.625ZM449.781 44.5938V55.6094H413.734V44.5938H449.781ZM471.953 1.75H497.406C502.625 1.75 507.109 2.53125 510.859 4.09375C514.641 5.65625 517.547 7.96875 519.578 11.0312C521.609 14.0937 522.625 17.8594 522.625 22.3281C522.625 25.9844 522 29.125 520.75 31.75C519.531 34.3438 517.797 36.5156 515.547 38.2656C513.328 39.9844 510.719 41.3594 507.719 42.3906L503.266 44.7344H481.141L481.047 33.7656H497.5C499.969 33.7656 502.016 33.3281 503.641 32.4531C505.266 31.5781 506.484 30.3594 507.297 28.7969C508.141 27.2344 508.562 25.4219 508.562 23.3594C508.562 21.1719 508.156 19.2812 507.344 17.6875C506.531 16.0938 505.297 14.875 503.641 14.0312C501.984 13.1875 499.906 12.7656 497.406 12.7656H486.016V70H471.953V1.75ZM510.109 70L494.547 39.5781L509.406 39.4844L525.156 69.3438V70H510.109ZM554.406 70H539.547L539.641 59.0312H554.406C558.094 59.0312 561.203 58.2031 563.734 56.5469C566.266 54.8594 568.172 52.4062 569.453 49.1875C570.766 45.9688 571.422 42.0781 571.422 37.5156V34.1875C571.422 30.6875 571.047 27.6094 570.297 24.9531C569.578 22.2969 568.5 20.0625 567.062 18.25C565.625 16.4375 563.859 15.0781 561.766 14.1719C559.672 13.2344 557.266 12.7656 554.547 12.7656H539.266V1.75H554.547C559.109 1.75 563.281 2.53125 567.062 4.09375C570.875 5.625 574.172 7.82813 576.953 10.7031C579.734 13.5781 581.875 17.0156 583.375 21.0156C584.906 24.9844 585.672 29.4062 585.672 34.2812V37.5156C585.672 42.3594 584.906 46.7812 583.375 50.7812C581.875 54.7812 579.734 58.2188 576.953 61.0938C574.203 63.9375 570.906 66.1406 567.062 67.7031C563.25 69.2344 559.031 70 554.406 70ZM547.516 1.75V70H533.453V1.75H547.516Z" fill="#668CAA"/>
</svg>
