<svg width="191" height="191" viewBox="0 0 191 191" fill="none" xmlns="http://www.w3.org/2000/svg">
<circle cx="95.5" cy="95.5" r="95.5" fill="#F8F8F8"/>
<path d="M60.6719 128H45.8125L45.9062 117.031H60.6719C64.3594 117.031 67.4688 116.203 70 114.547C72.5312 112.859 74.4375 110.406 75.7188 107.188C77.0312 103.969 77.6875 100.078 77.6875 95.5156V92.1875C77.6875 88.6875 77.3125 85.6094 76.5625 82.9531C75.8438 80.2969 74.7656 78.0625 73.3281 76.25C71.8906 74.4375 70.125 73.0781 68.0312 72.1719C65.9375 71.2344 63.5312 70.7656 60.8125 70.7656H45.5312V59.75H60.8125C65.375 59.75 69.5469 60.5312 73.3281 62.0938C77.1406 63.625 80.4375 65.8281 83.2188 68.7031C86 71.5781 88.1406 75.0156 89.6406 79.0156C91.1719 82.9844 91.9375 87.4062 91.9375 92.2812V95.5156C91.9375 100.359 91.1719 104.781 89.6406 108.781C88.1406 112.781 86 116.219 83.2188 119.094C80.4688 121.938 77.1719 124.141 73.3281 125.703C69.5156 127.234 65.2969 128 60.6719 128ZM53.7812 59.75V128H39.7188V59.75H53.7812Z" fill="#004071"/>
<path d="M128.875 98.0469H111.344L111.25 88.3906H125.969C128.562 88.3906 130.688 88.0625 132.344 87.4062C134 86.7188 135.234 85.7344 136.047 84.4531C136.891 83.1406 137.312 81.5469 137.312 79.6719C137.312 77.5469 136.906 75.8281 136.094 74.5156C135.312 73.2031 134.078 72.25 132.391 71.6562C130.734 71.0625 128.594 70.7656 125.969 70.7656H116.219V128H102.156V59.75H125.969C129.938 59.75 133.484 60.125 136.609 60.875C139.766 61.625 142.438 62.7656 144.625 64.2969C146.812 65.8281 148.484 67.7656 149.641 70.1094C150.797 72.4219 151.375 75.1719 151.375 78.3594C151.375 81.1719 150.734 83.7656 149.453 86.1406C148.203 88.5156 146.219 90.4531 143.5 91.9531C140.812 93.4531 137.297 94.2812 132.953 94.4375L128.875 98.0469ZM128.266 128H107.5L112.984 117.031H128.266C130.734 117.031 132.75 116.641 134.312 115.859C135.875 115.047 137.031 113.953 137.781 112.578C138.531 111.203 138.906 109.625 138.906 107.844C138.906 105.844 138.562 104.109 137.875 102.641C137.219 101.172 136.156 100.047 134.688 99.2656C133.219 98.4531 131.281 98.0469 128.875 98.0469H115.328L115.422 88.3906H132.297L135.531 92.1875C139.688 92.125 143.031 92.8594 145.562 94.3906C148.125 95.8906 149.984 97.8438 151.141 100.25C152.328 102.656 152.922 105.234 152.922 107.984C152.922 112.359 151.969 116.047 150.062 119.047C148.156 122.016 145.359 124.25 141.672 125.75C138.016 127.25 133.547 128 128.266 128Z" fill="#004071" fill-opacity="0.5"/>
</svg>
